<svg width="246" height="252" viewBox="0 0 246 252" fill="none" xmlns="http://www.w3.org/2000/svg">
<mask id="mask0_404_401" style="mask-type:luminance" maskUnits="userSpaceOnUse" x="0" y="0" width="246" height="252">
<path d="M0.0406421 0L0 127.271C1.07702 195.733 55.3749 251.047 122.556 251.067C190.327 251.168 245.133 194.94 245.316 125.483C245.296 56.7568 191.201 0.975411 124.284 0.121926V0H0.0406421Z" fill="white"/>
</mask>
<g mask="url(#mask0_404_401)">
<path d="M-108.779 62.7921L183.967 -106.239L354.074 188.376L61.3085 357.387L-108.779 62.7921Z" fill="url(#paint0_linear_404_401)"/>
</g>
<path d="M147.492 118.57C147.547 113.722 146.161 108.967 143.508 104.908C140.856 100.85 137.057 97.6714 132.595 95.7762C128.132 93.881 123.207 93.3548 118.445 94.2643C113.683 95.1738 109.298 97.478 105.848 100.884C102.398 104.291 100.038 108.646 99.068 113.396C98.0979 118.146 98.5614 123.077 100.4 127.564C102.238 132.05 105.368 135.889 109.392 138.593C113.416 141.297 118.153 142.744 123.002 142.75C126.198 142.772 129.367 142.165 132.329 140.961C135.29 139.758 137.985 137.982 140.259 135.737C142.534 133.491 144.343 130.819 145.584 127.873C146.825 124.928 147.473 121.766 147.492 118.57Z" fill="#0082CA"/>
<path d="M114.282 152.33C108.282 146.79 102.722 143.22 98.4618 136.54C94.6647 131.428 92.5411 125.266 92.3818 118.9C92.3182 113.448 94.0234 108.122 97.2418 103.72C101.242 97.39 105.362 91.07 108.782 85.47C110.422 82.76 112.052 79.91 113.782 76.71C117.392 70 122.852 62.11 116.172 53C116.172 53 114.352 56 63.2918 124.71C63.2271 124.769 63.17 124.837 63.1218 124.91C62.3607 126.058 61.9698 127.413 62.0018 128.79V128.91C61.9723 130.667 62.4818 132.391 63.4618 133.85L82.6618 165.1C84.4418 168.45 85.0018 174.68 85.0718 179.68C85.0718 181.92 85.0718 187.1 85.0718 190.16C85.0718 195.63 89.7318 198.83 95.6618 198.89H119.272V172.28C119.322 170.45 119.352 161.62 118.722 159.64C118.103 156.77 116.531 154.193 114.262 152.33" fill="#0082CA"/>
<path d="M131.792 152.33C137.792 146.79 143.342 143.22 147.602 136.54C151.399 131.428 153.523 125.266 153.682 118.9C153.745 113.448 152.04 108.122 148.822 103.72C144.822 97.39 140.702 91.07 137.282 85.47C135.642 82.76 134.012 79.91 132.282 76.71C128.672 70 123.212 62.11 129.892 53C129.892 53 131.712 56 182.772 124.71C182.837 124.772 182.897 124.839 182.952 124.91C183.705 126.061 184.092 127.414 184.062 128.79V128.91C184.091 130.667 183.582 132.391 182.602 133.85L163.402 165.1C161.622 168.45 161.062 174.68 160.992 179.68C160.992 181.92 160.992 187.1 160.992 190.16C160.992 195.63 156.332 198.83 150.402 198.89H126.792V172.28C126.792 170.45 126.712 161.62 127.342 159.64C127.963 156.768 129.539 154.192 131.812 152.33" fill="#0082CA"/>
<defs>
<linearGradient id="paint0_linear_404_401" x1="16.5489" y1="187.107" x2="265.431" y2="43.4149" gradientUnits="userSpaceOnUse">
<stop offset="1" stop-color="white"/>
</linearGradient>
</defs>
</svg>
