<svg width="246" height="252" viewBox="0 0 246 252" fill="none" xmlns="http://www.w3.org/2000/svg">
<mask id="mask0_404_412" style="mask-type:luminance" maskUnits="userSpaceOnUse" x="0" y="0" width="246" height="252">
<path d="M0.0406421 0L0 127.271C1.07702 195.733 55.3749 251.047 122.556 251.067C190.327 251.168 245.133 194.94 245.316 125.483C245.296 56.7568 191.201 0.975411 124.284 0.121926V0H0.0406421Z" fill="white"/>
</mask>
<g mask="url(#mask0_404_412)">
<path d="M-108.779 62.7921L183.967 -106.239L354.074 188.376L61.3085 357.387L-108.779 62.7921Z" fill="url(#paint0_linear_404_412)"/>
</g>
<path d="M67.7727 105.182C70.4769 105.182 73.1836 105.205 75.8877 105.182C76.8087 105.169 77.2513 105.455 77.1873 106.443C77.1413 107.358 77.1413 108.275 77.1873 109.191C77.2283 110.349 77.2539 111.401 76.0796 112.191C75.2609 112.744 75.3837 113.829 75.3812 114.75C75.3812 119.058 75.3274 123.366 75.4093 127.672C75.4349 129.087 74.9667 129.527 73.5929 129.435C71.9914 129.331 70.3848 129.331 68.7833 129.435C67.5911 129.509 66.9924 129.03 66.7212 127.93C66.6266 127.531 66.4654 127.145 66.3452 126.753C66.1098 126.029 65.8335 125.973 65.1939 126.482C56.7515 133.305 45.3311 130.576 40.8233 120.698C39.1016 116.929 38.3674 112.949 38.1218 108.855C37.999 106.783 37.5154 104.962 35.433 103.979C34.6834 103.624 35.0287 103.296 35.5532 103.089C37.6178 102.281 38.3367 100.574 38.5976 98.5607C39.2813 92.9225 41.8401 87.6777 45.8632 83.6687C48.9895 80.4887 52.827 79.8619 56.9587 80.0231C59.8091 80.137 62.5908 80.9318 65.0711 82.3409C65.8949 82.8014 66.2684 82.5584 66.3656 81.7193C66.4654 80.8418 66.9668 80.6038 67.7804 80.6192C69.474 80.655 71.1727 80.6627 72.8689 80.6192C73.7515 80.5962 74.1199 80.9313 74.1174 81.8114C74.1037 86.7575 74.1037 91.7078 74.1174 96.6624C74.1174 97.5297 73.7438 97.9083 72.874 97.9032C69.2924 97.8904 65.7107 97.8751 62.147 97.9032C60.9573 97.9032 60.681 97.2739 60.6427 96.2633C60.5429 93.7818 60.1668 91.3488 59.1895 89.0361C58.4937 87.3911 57.6034 86.6926 56.2731 86.8027C54.6715 86.9357 53.9706 87.5702 53.4922 89.3431C52.6735 92.3542 52.0262 95.3884 52.0544 98.5377C52.0697 100.456 52.8014 101.927 54.5053 102.815C55.439 103.304 55.3137 103.619 54.5053 104.038C52.4944 105.077 51.6451 106.701 51.8165 108.986C52.0723 112.409 52.103 115.855 52.6658 119.247C53.1391 122.115 55.1372 123.717 57.5497 123.341C59.0437 123.105 60.0798 122.292 60.5275 120.841C61.3692 118.127 61.4409 115.343 61.1748 112.539C61.0878 111.613 60.5429 111.148 59.6398 111.112C58.4655 111.068 57.9974 110.482 58.1995 109.321C58.2187 109.092 58.2187 108.862 58.1995 108.633C58.2148 105.189 58.2148 105.189 61.73 105.189H67.7804" fill="#EEB721"/>
<path d="M97.3316 128.076C97.3316 126.625 97.3188 125.446 97.3316 124.267C97.3316 123.714 97.5414 123.305 98.1989 123.243C98.9357 123.179 99.1634 122.65 99.2222 121.995C99.307 121.265 99.2426 120.525 99.0329 119.82C98.2654 117.564 97.5107 115.31 96.7688 113.048C96.5283 112.314 96.1522 111.749 95.4078 111.434C93.9956 110.833 93.3279 111.155 93.2383 112.685C93.0669 115.609 92.9697 118.539 92.8725 121.465C92.829 122.745 93.599 123.277 94.7759 123.279C95.7992 123.279 96.0883 123.747 96.096 124.73C96.1292 128.69 96.1574 128.69 92.2585 128.69C88.0398 128.69 83.816 128.657 79.6076 128.713C78.5459 128.728 78.0726 128.373 78.0879 127.337C78.0879 126.741 78.0879 126.145 78.0879 125.546C78.07 123.471 78.0675 123.461 80.0578 123.289C81.3575 123.177 81.7386 122.266 81.8 121.199C81.8845 119.738 81.8666 118.267 81.8691 116.802C81.8691 114.282 81.9024 111.762 81.8691 109.242C81.8359 106.722 80.9021 104.68 78.3489 103.682C78.4282 103.537 78.4589 103.37 78.5484 103.322C81.2935 101.912 82.0226 99.5508 81.8742 96.6573C81.7489 94.2346 81.8512 91.7965 81.8 89.3738C81.7591 87.4397 81.3447 87.0022 79.4541 86.9715C78.4691 86.9561 78.0163 86.6364 78.0572 85.6105C78.1058 84.3748 78.0777 83.1366 78.0572 81.8983C78.0572 81.0746 78.3463 80.6473 79.2699 80.6524C85.5506 80.6857 91.8338 80.5424 98.1094 80.742C102.458 80.8801 106.378 82.4561 109.266 85.8765C113.285 90.6324 112.566 99.4817 107.79 103.977C106.467 105.22 106.296 106.417 106.897 108.016C108.233 111.57 109.471 115.157 110.747 118.733C110.929 119.245 111.259 119.664 110.353 119.961C103.349 122.294 103.126 122.455 97.324 128.084M93.3227 94.2755C93.3227 96.1073 93.356 97.9365 93.3227 99.7682C93.292 101.088 93.6604 102.229 94.9856 102.595C96.3109 102.961 96.7944 101.7 97.2523 100.832C99.212 97.1255 99.0201 93.2675 97.7819 89.4045C97.393 88.1944 96.3902 87.4985 95.2236 87.102C93.9444 86.6594 93.3867 87.015 93.356 88.3811C93.3099 90.3459 93.356 92.3158 93.3406 94.2832" fill="#EEB721"/>
<path d="M191.726 137.782C191.102 139.159 190.531 140.456 189.935 141.738C187.208 147.565 182.647 150.725 176.212 151.144C175.804 151.171 175.393 151.158 174.987 151.106C174.475 151.042 173.744 151.106 173.736 150.382C173.72 150.033 173.831 149.69 174.048 149.416C174.266 149.143 174.574 148.957 174.918 148.893C179.249 147.814 181.357 142.784 179.08 138.875C178.297 139.402 178.113 140.279 177.801 141.052C176.143 145.127 173.562 148.41 169.824 150.756C168.51 151.594 167.048 152.175 165.516 152.467C162.983 152.94 161.287 152.303 159.888 150.103C159.32 149.218 159.008 149.315 158.473 150.075C157.963 150.84 157.302 151.493 156.532 151.995C155.763 152.497 154.899 152.838 153.993 152.997C151.747 153.398 150.412 152.291 150.517 150.019C150.577 149.291 150.703 148.57 150.893 147.865C150.977 147.507 151.233 147.13 150.765 146.916C150.297 146.701 150.194 147.187 149.997 147.463C147.521 150.848 144.272 153.091 140.158 153.987C138.508 154.34 137.011 154.657 135.236 153.575C134.601 153.189 134.512 153.951 134.315 154.255C132.731 157.804 131.063 161.321 129.684 164.949C128.873 167.085 127.742 168.393 125.363 168.403C124.788 168.403 124.225 168.723 123.447 168.595L129.513 154.642C128.489 154.724 127.645 154.754 126.806 154.869C124.805 155.141 123.626 154.143 122.797 152.452C121.968 150.761 121.728 150.756 120.648 152.332C120.523 152.516 120.433 152.728 120.252 153.063C121.15 153.232 121.966 153.475 122.27 154.417C122.513 155.166 122.466 155.98 122.137 156.696C121.886 157.321 121.421 157.836 120.824 158.149C120.228 158.461 119.54 158.551 118.883 158.402C117.747 158.116 116.964 156.911 117.107 155.494C117.34 153.173 118.607 151.367 120.293 149.901C121.572 148.793 121.989 147.578 121.871 145.913C121.695 143.444 122.078 140.978 122.291 138.514C122.347 137.872 122.692 137.519 123.368 137.527C123.687 137.527 124.01 137.506 124.33 137.486C126.786 137.337 126.768 137.335 126.543 139.86C126.43 141.139 126.397 142.418 126.343 143.697C126.35 144.009 126.376 144.32 126.42 144.628C127.849 143.655 129.086 142.427 130.07 141.006C130.383 140.55 130.447 140.33 129.871 139.982C128.64 139.215 128.42 138.094 129.07 136.792C129.753 135.434 131.24 134.712 132.486 135.157C133.21 135.413 133.54 135.974 133.609 136.733C133.699 137.884 133.463 139.037 132.928 140.059C131.623 142.705 129.689 144.815 127.348 146.568C126.013 147.568 126.108 150.953 127.512 151.871C128.262 152.362 128.845 151.871 129.362 151.457C130.997 150.134 132.125 148.387 133.01 146.527C134.34 143.713 135.599 140.875 136.812 138.018C137.259 136.966 137.85 136.403 139.048 136.378C140.926 136.366 142.788 136.019 144.545 135.354C146.577 134.556 148.191 135.782 148.429 138.077C148.705 140.745 147.864 143.134 146.618 145.424C145.999 146.548 145.279 147.614 144.466 148.607C144.226 148.903 143.699 149.223 144.052 149.63C144.479 150.119 144.873 149.574 145.223 149.338C147.161 148.09 148.686 146.295 149.603 144.181C150.33 142.502 151.056 140.822 151.867 139.184C152.379 138.148 152.556 137.173 152.22 136.032C152.037 135.365 152.07 134.657 152.314 134.009C152.558 133.362 153.001 132.808 153.579 132.428C154.525 131.811 155.516 131.773 156.347 132.586C157.178 133.4 156.887 134.247 156.327 135.078C155.39 136.462 155.395 136.465 156.91 137.278C158.972 138.381 159.182 138.908 158.294 141.103C157.383 143.347 156.414 145.567 155.48 147.806C155.275 148.297 154.904 148.921 155.523 149.285C156.05 149.594 156.575 149.162 156.948 148.758C158.14 147.463 158.941 145.923 159.647 144.327C161.044 141.162 162.717 138.187 165.37 135.869C166.764 134.597 168.472 133.721 170.318 133.331C173.078 132.781 175.151 134.723 174.749 137.498C174.219 141.29 171.073 144.587 167.281 145.383C166.463 145.557 165.721 145.368 164.999 145.112C164.278 144.856 164.114 145.061 164.022 145.728C163.728 147.875 165.148 149.226 167.279 148.627C170.968 147.591 173.616 145.227 175.32 141.835C176.182 140.121 176.883 138.327 177.691 136.585C177.919 136.094 177.842 135.6 177.873 135.106C178.021 132.758 179.119 130.913 180.943 129.516C181.71 128.92 182.721 128.48 183.583 129.261C184.445 130.041 184.095 131.051 183.632 131.924C183.023 133.067 182.012 133.904 181.188 134.884C180.403 135.82 180.485 136.595 181.424 137.335C181.856 137.675 182.286 138.02 182.688 138.396C184.632 140.213 185.041 142.467 183.908 144.889C183.734 145.263 183.156 145.705 183.69 146.079C184.225 146.452 184.547 145.823 184.875 145.473C188.178 142.039 190.038 137.903 190.828 133.241C191.158 131.294 192.22 129.77 193.765 128.595C194.561 127.992 195.541 127.585 196.418 128.296C197.347 129.048 196.93 130.059 196.502 130.939C195.955 132.072 194.967 132.858 194.154 133.794C193.312 134.776 193.343 135.585 194.353 136.49C198.06 139.796 198.288 141.374 195.796 145.659C196.462 145.862 196.82 145.345 197.206 145.01C198.539 143.879 199.664 142.525 200.532 141.008C200.788 140.576 201.008 140.19 201.576 140.538C202.051 140.832 202.561 141.136 202.271 141.83C202.111 142.209 201.917 142.573 201.691 142.917C198.651 147.522 194.336 149.919 188.856 150.267C188.583 150.298 188.306 150.275 188.042 150.198C187.51 150.001 186.579 150.318 186.62 149.323C186.655 148.504 187.17 147.97 188.029 147.903C191.79 147.622 194.364 140.919 191.729 137.77M135.428 152.224C135.842 151.996 136.144 151.597 136.768 151.797C137.487 152.027 138.122 151.631 138.559 151.068C141.268 147.65 143.149 143.652 144.054 139.386C144.099 139.209 144.122 139.027 144.121 138.844C144.108 138.573 144.09 138.279 143.839 138.102C143.489 137.846 143.233 138.133 142.985 138.312C142.339 138.822 141.772 139.425 141.304 140.103C138.582 143.733 137.021 147.941 135.284 152.076C135.3 152.183 135.3 152.183 135.428 152.224ZM165.838 142.533C165.998 142.498 166.153 142.45 166.304 142.387C168.77 141.198 170.735 139.499 171.84 136.941C172.035 136.488 172.319 135.958 171.804 135.557C171.29 135.155 170.748 135.339 170.269 135.626C167.882 137.023 166.394 139.187 165.24 141.62C165.004 142.111 165.114 142.531 165.854 142.546" fill="#D42622"/>
<path d="M139.37 103.593C142.865 102.099 143.269 99.4229 143.028 96.3068C142.852 94.0299 143.005 91.7274 142.985 89.4352C142.964 87.4832 142.601 87.0227 140.682 87.0303C139.403 87.0303 138.953 86.6082 139.055 85.3521C139.115 84.2537 139.115 83.1528 139.055 82.0544C139.025 81.0848 139.408 80.609 140.416 80.6141C146.097 80.6516 151.78 80.6772 157.462 80.6908C158.312 80.6908 158.742 81.0004 158.729 81.8958C158.703 83.1749 158.711 84.4541 158.729 85.7333C158.729 86.5545 158.473 86.9561 157.537 86.9971C154.909 87.1173 154.743 87.3143 154.722 89.9033C154.694 92.4233 154.815 94.9483 154.687 97.4632C154.546 100.259 155.482 102.298 158.192 103.288C158.051 103.905 157.544 103.954 157.153 104.166C155.577 105.015 154.692 106.269 154.705 108.136C154.735 112.445 154.705 116.75 154.705 121.059C154.705 122.78 155.088 123.19 156.769 123.269C159.151 123.384 161.062 122.926 161.154 119.721C161.221 117.528 161.51 115.341 161.64 113.148C161.702 112.125 162.096 111.695 163.175 111.751C164.728 111.831 166.289 111.751 167.847 111.78C168.358 111.78 169.085 111.524 169.318 112.174C169.573 112.89 169.753 113.816 169.136 114.379C168.404 115.047 168.412 115.796 168.417 116.622C168.417 118.042 168.417 119.462 168.417 120.885C168.445 121.725 168.645 122.55 169.006 123.31C169.676 124.901 169.394 126.735 169.133 128.427C169.026 129.135 168.059 128.938 167.44 128.938C158.731 128.938 150.024 128.938 141.317 128.938C141.087 128.938 140.859 128.938 140.629 128.938C139.58 128.964 138.963 128.583 139.119 127.403C139.144 127.037 139.144 126.669 139.119 126.303C139.119 123.668 139.119 123.653 141.601 123.169C142.419 123.008 142.949 122.658 142.975 121.754C142.99 121.21 143.087 120.662 143.09 120.117C143.102 117.001 143.102 113.884 143.09 110.766C143.077 107.796 142.998 104.849 139.349 103.56" fill="#EEB822"/>
<path d="M172.899 103.427C175.923 102.301 176.821 100.165 176.737 97.3634C176.657 94.8051 176.737 92.2288 176.716 89.6628C176.716 87.6699 176.325 87.1838 174.383 87.0227C173.175 86.9203 172.656 86.4087 172.697 85.2165C172.735 84.0704 172.697 82.914 172.72 81.7781C172.735 81.0106 173.091 80.6448 173.923 80.6499C179.65 80.6891 185.379 80.7036 191.109 80.6934C191.974 80.6934 192.388 80.9799 192.368 81.8804C192.34 83.2082 192.353 84.5385 192.368 85.8663C192.368 86.6671 192.03 86.9741 191.207 87.0099C188.574 87.1224 188.474 87.2836 188.441 89.9187C188.408 92.5538 188.497 95.2272 188.346 97.8853C188.224 100.085 188.94 101.956 191.107 102.976C191.874 103.342 191.846 103.705 191.107 104.048C188.804 105.1 188.293 106.942 188.403 109.344C188.582 113.182 188.454 117.042 188.459 120.892C188.459 123.003 188.743 123.289 190.8 123.302C193.614 123.32 194.722 122.299 194.893 119.485C195.018 117.385 195.167 115.282 195.259 113.179C195.305 112.156 195.709 111.718 196.794 111.769C198.395 111.846 199.999 111.785 201.604 111.785C202.115 111.785 202.77 111.529 203.018 112.25C203.243 112.9 203.471 113.693 202.939 114.207C202.1 115.013 202.067 115.944 202.085 116.975C202.113 118.531 202.069 120.089 202.067 121.644C202.067 121.916 202.031 122.261 202.171 122.448C203.42 124.085 202.757 125.978 202.926 127.756C203.013 128.664 202.548 128.974 201.703 128.979C200.168 128.979 198.841 128.994 197.551 127.628C195.451 125.403 192.78 125.564 189.672 127.608C188.571 128.329 187.597 129.286 186.09 128.989C185.688 128.955 185.299 128.83 184.951 128.624C182.045 126.595 179.686 126.559 176.693 128.465C176.369 128.719 175.991 128.894 175.588 128.977C173.158 129.294 172.725 128.92 172.725 126.441V125.753C172.725 123.494 172.725 123.481 174.956 123.31C176.118 123.22 176.732 122.622 176.734 121.473C176.734 117.165 176.76 112.854 176.711 108.548C176.722 107.74 176.52 106.942 176.127 106.235C175.734 105.528 175.163 104.937 174.47 104.519C174.017 104.23 173.587 103.9 172.935 103.432" fill="#EEB721"/>
<path d="M135.962 103.462C133.202 104.816 132.416 106.898 132.457 109.495C132.514 113.077 132.457 116.64 132.473 120.214C132.473 122.297 132.764 122.652 134.814 122.686C135.949 122.704 136.364 123.115 136.295 124.236C136.223 125.423 136.256 126.618 136.295 127.818C136.313 128.585 135.939 128.941 135.233 128.946C131.935 128.969 128.638 128.946 125.34 128.979C124.777 128.979 124.655 128.616 124.55 128.212C124.035 126.107 122.896 124.208 121.283 122.762C120.868 122.391 120.881 121.995 120.924 121.529C121.318 117.418 121.124 113.294 121.096 109.178C121.081 106.934 120.234 105.084 118.136 103.969C117.663 103.713 117.258 103.422 118.034 103.086C120.221 102.14 121.019 100.344 121.055 98.1335C121.106 95.0251 121.272 91.9142 120.945 88.8058C120.812 87.5267 120.259 86.9562 118.934 86.9255C117.238 86.8845 117.084 86.6389 117.072 84.9504C117.041 80.8955 117.041 80.9364 121.058 80.8853C125.634 80.8264 130.214 81.0976 134.788 80.7343C135.732 80.6601 136.374 81.0848 136.323 82.1849C136.285 83.2364 136.244 84.2929 136.29 85.3419C136.336 86.3908 135.962 86.8206 134.898 86.9101C132.869 87.0764 132.769 87.1659 132.596 89.1973C132.312 92.3926 132.442 95.5931 132.511 98.8037C132.557 100.94 133.762 102.465 135.967 103.468" fill="#EEB71D"/>
<path d="M101.954 138.153C98.9612 134.016 99.1402 131.072 102.466 127.334C105.029 124.416 108.528 122.48 112.362 121.859C118.438 120.805 122.825 125.858 120.825 131.694C119.584 135.308 117.051 137.596 113.193 138.176C111.814 138.386 110.392 138.35 109.519 136.956C108.752 135.713 109.054 135.037 110.489 134.746C113.165 134.208 115.568 132.751 117.281 130.627C118.855 128.736 118.944 126.879 117.657 125.254C116.289 123.525 114.426 123.105 112.254 124.346C108.248 126.649 105.73 130.184 104.472 134.579C103.899 136.565 104.896 137.629 106.961 137.649C107.327 137.649 107.695 137.662 108.061 137.649C108.711 137.649 109.12 137.885 109.12 138.601C109.12 139.317 108.777 139.624 108.115 139.637C106.966 139.66 105.812 139.67 104.715 140.044C98.5186 142.167 94.3024 146.268 93.2407 152.836C92.4477 157.732 95.2721 160.099 99.57 159.577C104.664 158.958 108.396 156.507 110.236 151.546C110.926 149.681 110.704 147.998 109.084 146.726C108.143 145.987 108.45 145.516 109.215 144.969C109.92 144.44 110.804 144.208 111.678 144.321C112.552 144.434 113.347 144.884 113.894 145.575C115.708 147.724 115.864 151.073 113.994 153.78C109.798 159.861 104.062 162.943 96.5819 161.815C92.834 161.247 89.9559 159.201 88.7918 155.348C88.3595 153.92 88.4695 152.436 88.7918 150.999C90.1529 144.659 94.2001 140.804 100.187 138.767L101.962 138.164" fill="#D52822"/>
<path d="M208.839 156.875C208.46 157.492 207.992 157.522 207.544 157.573C202.448 158.139 197.362 158.773 192.322 159.728C191.96 159.781 191.602 159.857 191.25 159.955C190.534 160.183 190.027 160.636 190.068 161.442C190.109 162.248 190.738 162.447 191.404 162.567C194.399 163.107 197.413 163.079 200.437 162.9C202.402 162.78 204.372 162.726 206.339 162.682C207.334 162.659 208.342 162.659 209.383 163.353C202.988 164.402 196.965 166.402 190.646 166.963C187.336 167.257 184.171 166.906 181.26 165.121C179.295 163.913 177.095 164.212 174.959 164.353C168.197 164.808 161.44 165.315 154.681 165.799C147.189 166.344 139.699 166.879 132.212 167.403L131.39 167.461C130.423 167.541 130.201 167.226 130.546 166.262C131.434 163.772 131.859 163.401 134.463 163.222C147.529 162.318 160.593 161.412 173.654 160.503C174.247 160.462 174.844 160.449 175.445 160.423C177.65 160.326 179.671 160.073 181.477 158.377C183.549 156.443 186.364 155.913 189.165 155.9C195.348 155.87 201.514 156.438 207.69 156.645C208.08 156.691 208.465 156.766 208.844 156.87" fill="#EEB721"/>
<path d="M124.11 164.228C123.682 165.251 123.365 166.067 123.022 166.855C122.951 167.02 122.846 167.167 122.713 167.289C122.581 167.41 122.425 167.502 122.255 167.559C119.047 168.838 115.736 169.393 112.277 169.549C107.294 169.772 102.323 170.283 97.3469 170.654C96.7069 170.698 96.0644 170.69 95.4256 170.631C93.6732 170.478 92.7266 169.562 92.5321 167.886C92.4389 167.172 92.6051 166.449 93.0005 165.847C93.3958 165.246 93.9941 164.806 94.6863 164.609C96.4106 164.049 98.2244 164.192 99.9999 164.115C105.856 163.859 111.714 163.673 117.573 163.468C118.34 163.44 119.149 163.383 119.737 164.069C120.044 164.425 120.436 164.414 120.868 164.384C121.868 164.31 122.874 164.284 124.115 164.228M97.6104 168.979C98.5595 168.889 99.4243 168.82 100.169 168.313C101.228 167.589 101.192 166.691 100.074 166.131C99.6547 165.898 99.1935 165.75 98.7167 165.695C98.24 165.64 97.7571 165.679 97.2957 165.811C96.3696 166.106 95.0905 166.361 95.2056 167.577C95.3361 168.856 96.6715 168.822 97.6104 168.979Z" fill="#EEB721"/>
<defs>
<linearGradient id="paint0_linear_404_412" x1="16.5489" y1="187.107" x2="265.431" y2="43.4149" gradientUnits="userSpaceOnUse">
<stop offset="1" stop-color="white"/>
</linearGradient>
</defs>
</svg>
