<svg width="246" height="252" viewBox="0 0 246 252" fill="none" xmlns="http://www.w3.org/2000/svg">
<mask id="mask0_404_436" style="mask-type:luminance" maskUnits="userSpaceOnUse" x="0" y="0" width="246" height="252">
<path d="M0.0406421 0L0 127.271C1.07702 195.733 55.3749 251.047 122.556 251.067C190.327 251.168 245.133 194.94 245.316 125.483C245.296 56.7568 191.201 0.975411 124.284 0.121926V0H0.0406421Z" fill="white"/>
</mask>
<g mask="url(#mask0_404_436)">
<path d="M-108.779 62.7921L183.967 -106.239L354.074 188.376L61.3085 357.387L-108.779 62.7921Z" fill="url(#paint0_linear_404_436)"/>
</g>
<path d="M156.207 110.438C159.619 97.6528 159.619 97.6528 159.619 97.6528C158.306 98.3833 155.55 98.2418 154.392 98.2424C112.262 98.4665 112.262 98.4665 112.262 98.4665C115.309 100.028 116.085 102.172 115.079 106.257C105.903 140.996 105.903 140.996 105.903 140.996C104.068 147.694 102.465 150.64 99.6698 150.646C97.3467 150.669 96.2011 149.378 94.0835 146.163C79.5645 120.06 79.5645 120.06 79.5645 120.06C109.752 98.5059 109.752 98.5059 109.752 98.5059C82.9576 98.6382 82.9576 98.6382 82.9576 98.6382C86.6943 100.752 87.1826 103.862 83.2346 106.664C62.7526 122.723 62.7526 122.723 62.7526 122.723C67.2681 105.993 67.2681 105.993 67.2681 105.993C68.5141 101.859 71.4853 99.7202 74.14 98.653C45.2662 98.8291 45.2662 98.8291 45.2662 98.8291C48.3311 100.328 49.1375 102.525 48.1624 106.664C38.9261 141.455 38.9261 141.455 38.9261 141.455C37.9478 145.026 36.9188 149.196 31.2229 151.497C59.8047 151.309 59.8047 151.309 59.8047 151.309C56.3331 149.222 56.3843 146.465 57.2761 142.961C61.3708 127.933 61.3708 127.933 61.3708 127.933C72.8686 151.299 72.8686 151.299 72.8686 151.299C86.0845 151.149 86.0845 151.149 86.0845 151.149C126.733 150.86 126.733 150.86 126.733 150.86C123.598 148.207 123.517 145.186 124.758 140.824C128.145 128.214 128.145 128.214 128.145 128.214C137.389 128.134 137.389 128.134 137.389 128.134C141.758 128.104 143.333 128.99 145.244 130.968C148.494 118.524 148.494 118.524 148.494 118.524C147.187 119.234 144.336 119.111 143.3 119.077C130.568 119.201 130.568 119.201 130.568 119.201C133.737 107.303 133.737 107.303 133.737 107.303C148.54 107.247 148.54 107.247 148.54 107.247C152.796 107.3 154.511 108.338 156.201 110.459L156.207 110.438Z" fill="#EE1832"/>
<path d="M189.768 143.234C178.006 143.214 171.352 134.917 171.317 125.844C171.267 115.745 179.41 105.506 193.051 105.381C197.334 105.419 201.939 106.022 207.844 108.594C210.715 98.1134 210.715 98.1134 210.715 98.1134C206.862 97.1713 201.831 96.6332 195.86 96.7013C168.533 96.8695 151.014 112.809 151.125 128.49C151.184 140.295 160.736 152.112 182.811 151.959C189.314 151.855 195.714 151.541 201.05 150.391C203.753 140.523 203.753 140.523 203.753 140.523C199.492 141.9 194.079 143.166 189.768 143.234Z" fill="#EE1832"/>
<path d="M40.4628 143.557C50.1581 107.256 50.1581 107.256 50.1581 107.256C51.3987 102.894 50.9642 101.412 49.719 99.8218C52.1086 100.386 53.6054 102.136 52.1929 107.291C42.5051 143.73 42.5051 143.73 42.5051 143.73C41.3184 148.062 39.6891 149.614 36.4323 149.562C38.5088 148.45 39.839 146.248 40.4839 143.563L40.4628 143.557Z" fill="white"/>
<path d="M107.385 143.379C117.092 107.036 117.092 107.036 117.092 107.036C118.309 102.758 117.833 101.265 116.607 99.5207C119.016 100.181 120.474 101.988 119.073 107.102C109.379 143.562 109.379 143.562 109.379 143.562C108.223 147.947 106.952 149.438 103.727 149.35C105.731 148.422 106.476 146.696 107.385 143.379Z" fill="white"/>
<path d="M135.041 103.208C148.637 103.162 148.637 103.162 148.637 103.162C152.618 103.14 155.932 103.98 155.855 107.162C154.396 105.853 152.768 104.998 148.147 105.118C134.439 105.156 134.439 105.156 134.439 105.156L135.041 103.208Z" fill="white"/>
<path d="M128.801 125.985C129.345 123.999 129.345 123.999 129.345 123.999C137.45 124.016 137.45 124.016 137.45 124.016C141.4 123.94 144.717 124.849 144.679 127.973C143.236 126.692 141.586 125.831 136.965 125.951C128.801 125.985 128.801 125.985 128.801 125.985Z" fill="white"/>
<path d="M153.571 128.433C153.52 111.042 172.913 101.363 185.135 100.032C174.554 102.835 155.843 111.27 155.815 128.367C155.871 144.828 173.536 149.417 185.825 150.081C172.219 151.237 153.599 145.909 153.571 128.433Z" fill="white"/>
<path d="M79.6098 149.08C76.8699 148.965 75.0829 145.705 75.0829 145.705C75.1862 146.074 75.1862 146.074 75.1862 146.074C65.1145 125.71 65.1145 125.71 65.1145 125.71C86.4636 109.139 86.4636 109.139 86.4636 109.139C90.7503 105.929 92.3448 101.187 87.883 99.6469C89.4518 102.212 88.5453 105.189 84.8798 107.956C62.671 125.177 62.671 125.177 62.671 125.177C74.4583 149.145 74.4583 149.145 74.4583 149.145C76.7718 149.075 76.7718 149.075 76.7718 149.075L79.6098 149.08Z" fill="white"/>
<defs>
<linearGradient id="paint0_linear_404_436" x1="16.5489" y1="187.107" x2="265.431" y2="43.4149" gradientUnits="userSpaceOnUse">
<stop offset="1" stop-color="white"/>
</linearGradient>
</defs>
</svg>
