<svg width="246" height="252" viewBox="0 0 246 252" fill="none" xmlns="http://www.w3.org/2000/svg">
<mask id="mask0_404_428" style="mask-type:luminance" maskUnits="userSpaceOnUse" x="0" y="0" width="246" height="252">
<path d="M0.0406421 0L0 127.271C1.07702 195.733 55.3749 251.047 122.556 251.067C190.327 251.168 245.133 194.94 245.316 125.483C245.296 56.7568 191.201 0.975411 124.284 0.121926V0H0.0406421Z" fill="white"/>
</mask>
<g mask="url(#mask0_404_428)">
<path d="M-108.779 62.7921L183.967 -106.239L354.074 188.376L61.3085 357.387L-108.779 62.7921Z" fill="url(#paint0_linear_404_428)"/>
</g>
<path fill-rule="evenodd" clip-rule="evenodd" d="M83.2338 111.725L88.0011 111.748L100.748 138.796H95.9864L92.0479 130.46L78.403 130.426L74.4015 138.705L69.7207 138.682L80.7176 115.732L83.0203 120.845L80.4817 126.038L90.0218 126.073L83.2338 111.725ZM149.45 128.445C151.148 132.256 155.627 135.02 159.491 135.054C164.426 135.066 166.556 133.672 168.651 130.932L168.64 128.583L159.318 128.56L159.336 123.678L168.656 123.735L173.131 123.747L173.119 128.606L173.096 131.911V132.763C170.309 136.908 165.254 139.626 159.451 139.603C151.897 139.591 145.65 134.789 144.015 128.422L149.45 128.445ZM159.572 111C164.638 111.023 169.077 113.13 172.008 116.423L168.386 119.762C166.446 117.252 163.222 115.594 159.566 115.571C154.073 115.548 149.479 119.314 148.846 124.184L143.733 124.173C144.378 116.803 151.24 110.988 159.572 111ZM197.197 111.265C205.96 111.299 213.03 117.679 213 125.428C212.966 132.429 207.157 138.29 199.459 139.292L199.477 134.709C204.301 133.753 207.935 129.919 207.958 125.428C207.98 120.097 203.161 115.813 197.185 115.778C191.215 115.755 186.372 120.016 186.361 125.313C186.344 129.838 189.913 133.684 194.675 134.686L194.652 139.28C187.023 138.198 181.208 132.302 181.237 125.301C181.271 117.54 188.41 111.23 197.197 111.265ZM129.88 111.978L134.21 112.002L134.13 129.919L129.823 125.439L129.88 111.978ZM111.1 111.886L112.977 111.898H113.052L134.486 136.31L134.475 138.946L131.153 138.923L112.959 118.243L112.873 138.843L108.526 138.82L108.664 111.886H111.1ZM57.3195 111.668L62.069 111.691L61.9487 138.647L57.1983 138.612L57.2908 119.97L52.1668 128.721L49.8751 124.576L57.3195 111.668ZM33.1092 111.564L37.865 111.598L50.2147 132.751L47.7447 136.586L37.8361 119.578L37.7553 138.543L33 138.532L33.1092 111.564Z" fill="#1D1D1B"/>
<defs>
<linearGradient id="paint0_linear_404_428" x1="16.5489" y1="187.107" x2="265.431" y2="43.4149" gradientUnits="userSpaceOnUse">
<stop offset="1" stop-color="white"/>
</linearGradient>
</defs>
</svg>
