<svg width="246" height="252" viewBox="0 0 246 252" fill="none" xmlns="http://www.w3.org/2000/svg">
<mask id="mask0_404_703" style="mask-type:luminance" maskUnits="userSpaceOnUse" x="0" y="0" width="246" height="252">
<path d="M0.0406421 0L0 127.271C1.07702 195.733 55.3749 251.047 122.556 251.067C190.327 251.168 245.133 194.94 245.316 125.483C245.296 56.7568 191.201 0.975411 124.284 0.121926V0H0.0406421Z" fill="white"/>
</mask>
<g mask="url(#mask0_404_703)">
<path d="M-108.779 62.7921L183.967 -106.239L354.074 188.376L61.3085 357.387L-108.779 62.7921Z" fill="url(#paint0_linear_404_703)"/>
</g>
<path d="M153.662 106.738C152.139 104.661 158.216 101.417 159.525 100.866C167.524 97.5183 177.165 98.5967 183.567 104.735C184.74 105.858 183.682 107.882 182.121 107.39C181.856 107.307 181.474 107.055 180.974 106.634C173.758 100.537 162.997 100.49 155.94 107.129C155.265 107.763 154.169 107.428 153.662 106.738Z" fill="#F4811E"/>
<path d="M159.374 112.08C158.207 112.894 156.595 111.822 156.909 110.536C157.273 109.031 161.951 106.756 163.089 106.359C167.727 104.735 172.19 105.084 176.48 107.405C178.319 108.4 179.499 109.135 180.021 109.609C181.6 111.043 179.852 113.253 178.163 112.115C171.213 107.428 166.321 107.242 159.374 112.08Z" fill="#F4811E"/>
<path d="M84.9495 121.225H91.4466C91.5414 121.225 91.5897 121.273 91.5917 121.368L91.6717 128.38C91.6717 128.495 91.6144 128.552 91.4999 128.552L84.9613 128.576C84.8448 128.576 84.7865 128.635 84.7865 128.753V152.256C84.7865 152.353 84.7382 152.401 84.6414 152.401L76.7193 152.416C76.6166 152.418 76.5652 152.368 76.5652 152.265V128.893C76.5652 128.719 76.4783 128.632 76.3045 128.632H73.8989C73.8001 128.632 73.7507 128.583 73.7507 128.484V121.409C73.7507 121.287 73.812 121.225 73.9344 121.225H76.423C76.4495 121.225 76.4757 121.22 76.4999 121.209C76.5242 121.199 76.5459 121.183 76.5638 121.164C76.5817 121.144 76.5952 121.121 76.6036 121.096C76.6121 121.071 76.6151 121.044 76.6126 121.018C75.9075 113.12 82.0491 107.891 89.5712 108.086C89.6897 108.088 89.749 108.148 89.749 108.267V115.078C89.749 115.19 89.6927 115.253 89.5801 115.265C85.8353 115.688 84.4755 117.386 84.8191 121.107C84.827 121.186 84.8705 121.225 84.9495 121.225Z" fill="#9B1E7C"/>
<path d="M195.364 108.116H187.371C187.328 108.116 187.294 108.15 187.294 108.193V152.401C187.294 152.444 187.328 152.478 187.371 152.478H195.364C195.406 152.478 195.441 152.444 195.441 152.401V108.193C195.441 108.15 195.406 108.116 195.364 108.116Z" fill="#9B1E7C"/>
<path d="M206.841 108.116H198.854C198.81 108.116 198.774 108.152 198.774 108.196V152.398C198.774 152.442 198.81 152.478 198.854 152.478H206.841C206.885 152.478 206.921 152.442 206.921 152.398V108.196C206.921 108.152 206.885 108.116 206.841 108.116Z" fill="#9B1E7C"/>
<path d="M161.279 116.577C159.981 115.537 160.642 114.432 161.806 113.712C166.487 110.824 171.625 110.844 176.006 114.008C177.899 115.374 176.252 117.635 174.537 116.719C173.609 116.221 172.632 115.576 171.716 115.256C168.511 114.13 165.916 114.909 163.101 116.595C162.47 116.974 161.842 117.027 161.279 116.577Z" fill="#F4811E"/>
<path d="M103.081 123.895C103.081 123.91 103.086 123.925 103.094 123.938C103.103 123.951 103.115 123.961 103.128 123.967C103.142 123.973 103.157 123.976 103.172 123.973C103.187 123.971 103.2 123.964 103.211 123.954C105.358 121.941 107.929 121.072 110.923 121.347C111.028 121.357 111.08 121.414 111.08 121.519V129.299C111.08 129.411 111.024 129.467 110.911 129.467C106.55 129.423 103.199 131.479 103.152 136.204C103.101 141.557 103.074 146.909 103.072 152.262C103.072 152.359 103.024 152.407 102.927 152.407H95.0076C94.9089 152.407 94.8595 152.358 94.8595 152.259V121.376C94.8595 121.278 94.9079 121.228 95.0047 121.228L102.921 121.202C103.027 121.202 103.081 121.255 103.081 121.362V123.895Z" fill="#9B1E7C"/>
<path d="M62.3121 148.997C62.3127 148.978 62.3077 148.958 62.2976 148.942C62.2874 148.925 62.2727 148.912 62.2552 148.903C62.2376 148.895 62.2179 148.891 62.1986 148.894C62.1792 148.896 62.161 148.904 62.1462 148.917C59.2645 151.321 56.0422 152.508 52.4791 152.478C35.4765 152.336 32.9672 128.253 47.5137 122.339C52.3606 120.366 57.9481 120.988 62.0928 124.416C62.2113 124.515 62.2706 124.487 62.2706 124.333V121.373C62.2706 121.275 62.32 121.225 62.4187 121.225H70.3734C70.5294 121.225 70.6075 121.303 70.6075 121.459L70.5719 152.324C70.5719 152.407 70.5304 152.449 70.4475 152.449L62.558 152.478C62.5182 152.478 62.4788 152.47 62.4421 152.455C62.4054 152.44 62.3721 152.417 62.3443 152.389C62.3164 152.361 62.2945 152.328 62.2798 152.291C62.2651 152.255 62.258 152.215 62.2587 152.176L62.3121 148.997ZM53.6701 145.329C55.7586 145.329 57.7615 144.461 59.2383 142.916C60.7151 141.371 61.5448 139.275 61.5448 137.09C61.5448 134.905 60.7151 132.809 59.2383 131.264C57.7615 129.719 55.7586 128.851 53.6701 128.851C51.5816 128.851 49.5786 129.719 48.1018 131.264C46.625 132.809 45.7954 134.905 45.7954 137.09C45.7954 139.275 46.625 141.371 48.1018 142.916C49.5786 144.461 51.5816 145.329 53.6701 145.329Z" fill="#9B1E7C"/>
<path d="M122.385 121.225H114.44C114.343 121.225 114.265 121.304 114.265 121.4V152.306C114.265 152.403 114.343 152.481 114.44 152.481H122.385C122.482 152.481 122.56 152.403 122.56 152.306V121.4C122.56 121.304 122.482 121.225 122.385 121.225Z" fill="#9B1E7C"/>
<path d="M153.075 147.371C145.455 155.74 129.543 153.66 126.415 141.884C123.487 130.866 129.91 120.677 142.131 121.246C146.181 121.433 149.624 122.932 152.373 125.927C152.442 126.002 152.441 126.077 152.37 126.152L147.363 131.429C147.3 131.496 147.234 131.498 147.165 131.435C141.1 125.974 132.358 130.709 134.177 138.785C135.616 145.175 143.305 146.15 147.538 141.987C147.603 141.922 147.668 141.922 147.734 141.987L153.069 147.166C153.136 147.233 153.138 147.301 153.075 147.371Z" fill="#9B1E7C"/>
<path d="M162.082 140.106C163.673 146.251 173.532 145.72 177.182 142.008C177.259 141.929 177.337 141.929 177.416 142.008L182.53 147.074C182.597 147.141 182.598 147.21 182.533 147.279C178.847 151.139 173.301 152.792 168.108 152.425C158.678 151.758 152.604 144.802 153.425 135.17C154.213 125.957 161.285 120.603 170.416 121.222C181.048 121.942 185.089 129.953 183.934 139.846C183.924 139.925 183.88 139.964 183.801 139.964H162.191C162.093 139.964 162.056 140.011 162.082 140.106ZM175.864 132.774C175.499 131.044 174.131 129.693 172.478 129.147C168.653 127.879 164.111 128.804 162.28 132.735C162.271 132.756 162.267 132.779 162.268 132.802C162.27 132.824 162.277 132.846 162.29 132.865C162.302 132.885 162.319 132.9 162.339 132.911C162.359 132.922 162.382 132.928 162.405 132.928H175.739C175.844 132.928 175.886 132.876 175.864 132.774Z" fill="#9B1E7C"/>
<defs>
<linearGradient id="paint0_linear_404_703" x1="16.5489" y1="187.107" x2="265.431" y2="43.4149" gradientUnits="userSpaceOnUse">
<stop offset="1" stop-color="white"/>
</linearGradient>
</defs>
</svg>
