<svg width="246" height="252" viewBox="0 0 246 252" fill="none" xmlns="http://www.w3.org/2000/svg">
<mask id="mask0_404_315" style="mask-type:luminance" maskUnits="userSpaceOnUse" x="0" y="0" width="246" height="252">
<path d="M0.0406421 0L0 127.271C1.07702 195.733 55.3749 251.047 122.556 251.067C190.327 251.168 245.133 194.94 245.316 125.483C245.296 56.7568 191.201 0.975411 124.284 0.121926V0H0.0406421Z" fill="white"/>
</mask>
<g mask="url(#mask0_404_315)">
<path d="M-108.779 62.7921L183.967 -106.239L354.074 188.376L61.3085 357.387L-108.779 62.7921Z" fill="url(#paint0_linear_404_315)"/>
</g>
<mask id="mask1_404_315" style="mask-type:luminance" maskUnits="userSpaceOnUse" x="33" y="95" width="26" height="27">
<path d="M33.0043 95.0045L33 108.447C33.1138 115.678 38.8486 121.52 45.9443 121.522C53.1022 121.533 58.8907 115.594 58.9101 108.258C58.9079 100.999 53.1945 95.1075 46.1267 95.0173V95.0045H33.0043Z" fill="white"/>
</mask>
<g mask="url(#mask1_404_315)">
<path d="M21.5109 101.636L52.4304 83.7834L70.397 114.9L39.4753 132.751L21.5109 101.636Z" fill="url(#paint1_linear_404_315)"/>
</g>
<mask id="mask2_404_315" style="mask-type:luminance" maskUnits="userSpaceOnUse" x="59" y="95" width="27" height="27">
<path d="M72.6807 95.0021V95.015C65.613 95.1052 59.8995 100.995 59.8995 108.256C59.9189 115.594 65.7074 121.53 72.8653 121.52C79.9609 121.517 85.6958 115.673 85.8096 108.444L85.8053 95H72.6807V95.0021Z" fill="white"/>
</mask>
<g mask="url(#mask2_404_315)">
<path d="M60.6808 125.96L90.3447 120.73L85.0262 90.57L55.3623 95.8005L60.6808 125.96Z" fill="url(#paint2_linear_404_315)"/>
</g>
<mask id="mask3_404_315" style="mask-type:luminance" maskUnits="userSpaceOnUse" x="59" y="122" width="27" height="28">
<path d="M72.8503 122.513C65.7632 122.518 60.0176 128.351 59.906 135.593L59.8995 135.584L59.9017 149.046L73.0112 149.039V149.018C80.0919 148.941 85.8031 143.036 85.7967 135.788C85.7903 128.448 80.0253 122.511 72.8567 122.511C72.8546 122.513 72.8524 122.513 72.8503 122.513Z" fill="white"/>
</mask>
<g mask="url(#mask3_404_315)">
<path d="M48.4103 129.148L79.3255 111.297L97.2921 142.414L66.3748 160.262L48.4103 129.148Z" fill="url(#paint3_linear_404_315)"/>
</g>
<mask id="mask4_404_315" style="mask-type:luminance" maskUnits="userSpaceOnUse" x="33" y="122" width="26" height="28">
<path d="M45.955 122.513C38.8679 122.518 33.1223 128.351 33.0107 135.593L33.0043 135.584L33.0064 149.046L46.116 149.039V149.018C53.1966 148.941 58.9079 143.036 58.9014 135.788C58.895 128.448 53.1301 122.511 45.9614 122.511C45.9614 122.513 45.9593 122.513 45.955 122.513Z" fill="white"/>
</mask>
<g mask="url(#mask4_404_315)">
<path d="M24.4771 125.617L55.8773 114.188L67.4351 145.942L36.0348 157.371L24.4771 125.617Z" fill="url(#paint4_linear_404_315)"/>
</g>
<path d="M122.824 153.967C122.797 155.345 123.788 155.766 125.007 155.766C125.709 155.766 126.778 155.382 126.778 154.407C126.778 153.648 126.02 153.347 125.402 153.199L123.913 152.834C123.125 152.637 122.404 152.261 122.406 151.222C122.406 150.565 122.829 149.34 124.711 149.34C126.033 149.34 127.194 150.052 127.184 151.42H126.546C126.51 150.398 125.666 149.883 124.72 149.883C123.848 149.883 123.043 150.22 123.041 151.211C123.041 151.84 123.509 152.102 124.052 152.233L125.681 152.637C126.628 152.89 127.415 153.302 127.413 154.399C127.413 154.858 127.224 156.309 124.855 156.309C123.271 156.309 122.11 155.596 122.185 153.965L122.824 153.967Z" fill="#2D7555"/>
<path d="M131.128 149.338H131.792V152.366H135.932V149.34H136.597L136.595 156.313H135.93L135.932 152.935L131.792 152.933L131.789 156.311H131.126L131.128 149.338Z" fill="#2D7555"/>
<path d="M143.212 149.342C145.311 149.342 146.359 151.001 146.359 152.83C146.359 154.656 145.307 156.313 143.21 156.313C141.102 156.313 140.053 154.654 140.055 152.828C140.053 150.999 141.104 149.34 143.212 149.342ZM143.208 155.768C144.97 155.768 145.719 154.289 145.719 152.828C145.719 151.366 144.97 149.885 143.21 149.885C141.439 149.885 140.688 151.364 140.688 152.825C140.688 154.287 141.437 155.768 143.208 155.768Z" fill="#2D7555"/>
<path d="M149.816 149.34L152.911 149.342C154.16 149.342 154.982 150.076 154.98 151.336C154.98 152.596 154.158 153.328 152.909 153.328L150.477 153.326L150.475 156.313H149.81L149.816 149.34ZM150.479 152.757H152.765C153.684 152.757 154.317 152.289 154.319 151.332C154.319 150.374 153.686 149.904 152.767 149.904H150.482L150.479 152.757Z" fill="#2D7555"/>
<path d="M158.899 149.34L161.994 149.342C163.244 149.342 164.063 150.076 164.063 151.336C164.063 152.596 163.241 153.328 161.992 153.328L159.561 153.326L159.558 156.313H158.893L158.899 149.34ZM159.563 152.757H161.849C162.767 152.757 163.4 152.289 163.402 151.332C163.402 150.374 162.769 149.904 161.851 149.904H159.565L159.563 152.757Z" fill="#2D7555"/>
<path d="M168.693 149.34H168.03V156.313H168.693V149.34Z" fill="#2D7555"/>
<path d="M173.071 149.338H173.814L177.875 155.238H177.894L177.896 149.34H178.559L178.557 156.313H177.815L173.754 150.413H173.734L173.732 156.311H173.069L173.071 149.338Z" fill="#2D7555"/>
<path d="M187.838 156.171H187.378L187.295 154.955H187.275C186.825 155.91 185.925 156.313 184.962 156.311C182.854 156.311 181.804 154.652 181.807 152.825C181.807 150.999 182.858 149.34 184.966 149.342C186.372 149.342 187.514 150.102 187.756 151.563H187.119C187.035 150.795 186.239 149.885 184.964 149.885C183.193 149.885 182.444 151.364 182.442 152.825C182.442 154.287 183.191 155.768 184.96 155.768C186.44 155.768 187.301 154.729 187.275 153.315H185V152.772L187.84 152.774L187.838 156.171Z" fill="#2D7555"/>
<path d="M123.984 126.497C122.601 124.567 120.625 123.333 117.761 122.614C117.661 122.588 117.558 122.563 117.457 122.539C117.613 122.44 117.772 122.346 117.931 122.252C118.369 121.99 118.824 121.721 119.219 121.38C121.867 119.107 122.138 114.855 120.871 112.061C119.472 108.977 116.854 107.288 113.297 107.178C109.831 107.069 106.307 107.084 102.898 107.099C101.647 107.105 100.394 107.109 99.1423 107.109C98.8848 107.109 98.6229 107.094 98.3718 107.142L98.037 107.193L98.022 141.321L103.083 141.326C104.454 141.328 105.843 141.33 107.24 141.33C109.608 141.332 111.999 141.328 114.362 141.315C115.577 141.308 116.697 141.199 117.686 140.993C120.453 140.413 122.603 138.956 124.08 136.664C125.132 135.031 125.608 133.148 125.501 131.066C125.409 129.285 124.913 127.791 123.984 126.497ZM100.087 109.159H104.386C107.079 109.161 109.771 109.161 112.464 109.166C114.287 109.17 115.748 109.567 116.935 110.378C118.862 111.696 119.697 113.598 119.491 116.19C119.165 120.24 116.102 121.775 113.344 121.861C110.213 121.957 107.021 121.953 103.937 121.947C103.28 121.945 102.621 121.945 101.965 121.945C101.338 121.945 100.711 121.945 100.082 121.947L100.087 109.159ZM123.423 132.635C123.061 135.286 121.354 137.479 118.862 138.505C117.628 139.014 116.268 139.263 114.705 139.269C111.001 139.28 107.298 139.276 103.594 139.272L100.121 139.267C100.106 139.267 100.093 139.267 100.08 139.267L100.087 124.005H104.656C108.069 124.003 111.481 124.005 114.894 124.016C117.227 124.024 119.105 124.608 120.635 125.801C122.741 127.446 123.784 130.002 123.423 132.635Z" fill="#2D7555"/>
<path d="M151.192 133.395C151.01 133.401 150.851 133.406 150.705 133.384C149.994 133.283 149.705 133.689 149.499 134.146C149.194 134.831 148.842 135.436 148.451 135.943C147.002 137.831 145.032 138.937 142.594 139.224C139.795 139.553 137.346 138.791 135.318 136.96C133.343 135.179 132.27 132.891 132.047 129.976L135.827 129.978C140.557 129.98 145.29 129.982 150.022 129.993C150.436 130.019 150.761 129.867 151.119 129.547C151.507 129.197 151.932 128.693 151.769 127.892C151.735 127.727 151.724 127.557 151.711 127.388C151.701 127.257 151.692 127.124 151.673 126.993C151.145 123.217 149.295 120.251 146.172 118.18C144.131 116.821 141.924 116.306 139.608 116.654C136.732 117.083 134.389 118.526 132.639 120.942C129.461 125.334 129.029 130.163 131.392 134.912C133.491 139.121 136.949 141.328 141.424 141.328C141.673 141.328 141.926 141.321 142.182 141.308C145.751 141.12 148.584 139.465 150.604 136.396C151.188 135.507 151.557 134.663 151.767 133.745L151.849 133.389H151.484C151.381 133.389 151.284 133.391 151.192 133.395ZM135.949 120.354C137.705 118.987 139.853 118.401 141.991 118.706C144.236 119.026 146.253 120.277 147.666 122.23C148.876 123.906 149.55 125.769 149.72 127.913L132.043 127.905C132.326 124.651 133.605 122.181 135.949 120.354Z" fill="#2D7555"/>
<path d="M185.595 121.097C185.483 120.964 185.372 120.831 185.26 120.695C184.951 120.32 184.629 119.933 184.277 119.579C182.242 117.532 179.897 116.495 177.306 116.493C174.69 116.491 172.324 117.493 170.275 119.468C167.989 121.663 166.699 124.366 166.441 127.499C166.001 132.801 167.884 136.9 172.041 139.688C173.672 140.783 175.376 141.33 177.134 141.332C178.278 141.332 179.444 141.1 180.628 140.639C182.515 139.903 184.131 138.623 185.571 136.733C185.586 136.713 185.601 136.694 185.614 136.677L185.612 140.287H187.677L187.685 117.515H185.591L185.595 121.097ZM185.629 127.802L185.627 128.922L185.629 130.055C185.631 131.101 185.634 132.148 185.616 133.193C185.612 133.427 185.543 133.685 185.438 133.863C184.015 136.205 182.348 137.752 180.341 138.591C177.486 139.787 174.782 139.383 172.301 137.396C169.873 135.451 168.575 132.749 168.446 129.369C168.317 126.033 169.388 123.207 171.627 120.968C173.226 119.371 175.256 118.564 177.304 118.566C179.143 118.566 180.995 119.219 182.554 120.534C183.711 121.511 184.672 122.64 185.413 123.889C185.537 124.099 185.612 124.385 185.619 124.655C185.636 125.705 185.634 126.752 185.629 127.802Z" fill="#2D7555"/>
<path d="M211.464 132.152C211.183 131.545 210.698 130.933 210.095 130.431C208.608 129.195 206.779 128.729 205.008 128.278L204.766 128.216C204.255 128.085 203.742 127.965 203.227 127.847C201.714 127.495 200.151 127.132 198.726 126.458C197.121 125.701 196.316 124.677 196.198 123.239C196.058 121.552 197.065 120.036 198.823 119.283C200.495 118.568 202.325 118.375 204.42 118.693C206.483 119.006 207.989 119.94 208.897 121.475C209.483 122.462 210.204 122.595 211.108 122.485L211.574 122.363L211.449 122.058C210.38 119.416 208.455 117.678 205.727 116.896C203.972 116.392 202.074 116.349 200.089 116.77C197.915 117.227 196.307 118.186 195.17 119.702C193.753 121.586 193.779 124.499 195.225 126.334C196.045 127.373 197.134 128.113 198.464 128.538C199.964 129.017 201.512 129.424 203.008 129.819L204.549 130.227C205.905 130.583 207.185 130.92 208.341 131.648C209.522 132.391 210.028 133.425 209.893 134.809C209.771 136.013 209.125 137.033 207.97 137.844C206.873 138.613 205.571 139.04 203.871 139.188C201.523 139.394 199.574 139.001 197.915 137.986C196.518 137.13 195.438 135.958 194.616 134.402C194.47 134.12 194.296 133.856 194.032 133.82C193.712 133.775 193.397 133.781 193.088 133.792C192.972 133.794 192.858 133.799 192.744 133.799H192.478L192.442 134.151C192.433 134.204 192.425 134.269 192.457 134.376C193.783 137.612 196.043 139.772 199.179 140.789C200.308 141.156 201.475 141.338 202.68 141.341C203.98 141.341 205.322 141.128 206.691 140.701C208.517 140.132 209.921 139.154 210.865 137.793C212.14 135.945 212.342 134.05 211.464 132.152Z" fill="#2D7555"/>
<path d="M154 109.138L158.429 109.14L158.417 141.33H160.43L160.445 107.112L154 107.109V109.138Z" fill="#2D7555"/>
<defs>
<linearGradient id="paint0_linear_404_315" x1="16.5489" y1="187.107" x2="265.431" y2="43.4149" gradientUnits="userSpaceOnUse">
<stop offset="1" stop-color="white"/>
</linearGradient>
<linearGradient id="paint1_linear_404_315" x1="34.7479" y1="114.766" x2="61.0346" y2="99.5897" gradientUnits="userSpaceOnUse">
<stop stop-color="#EF790D"/>
<stop offset="0.0165" stop-color="#EE780D"/>
<stop offset="0.3997" stop-color="#DE5E16"/>
<stop offset="0.7399" stop-color="#D54E19"/>
<stop offset="1" stop-color="#D2481A"/>
</linearGradient>
<linearGradient id="paint2_linear_404_315" x1="60.1917" y1="110.47" x2="92.3283" y2="104.803" gradientUnits="userSpaceOnUse">
<stop stop-color="#EF790D"/>
<stop offset="0.0165" stop-color="#EE780D"/>
<stop offset="0.3997" stop-color="#DE5E16"/>
<stop offset="0.7399" stop-color="#D54E19"/>
<stop offset="1" stop-color="#D2481A"/>
</linearGradient>
<linearGradient id="paint3_linear_404_315" x1="57.5495" y1="144.65" x2="84.2507" y2="129.234" gradientUnits="userSpaceOnUse">
<stop stop-color="#EF790D"/>
<stop offset="0.5803" stop-color="#DC5A17"/>
<stop offset="1" stop-color="#D2481A"/>
</linearGradient>
<linearGradient id="paint4_linear_404_315" x1="30.3772" y1="141.415" x2="58.239" y2="131.274" gradientUnits="userSpaceOnUse">
<stop stop-color="#EF790D"/>
<stop offset="1" stop-color="#D2481A"/>
</linearGradient>
</defs>
</svg>
