<svg width="550" height="189" viewBox="0 0 550 189" fill="none" xmlns="http://www.w3.org/2000/svg">
<mask id="mask0_404_274" style="mask-type:luminance" maskUnits="userSpaceOnUse" x="0" y="0" width="80" height="82">
<path d="M0.0131895 0.0136719L0 41.3166C0.349522 63.5343 17.9707 81.4853 39.773 81.4918C61.7665 81.5248 79.5525 63.2771 79.6119 40.7363C79.6053 18.4328 62.05 0.33022 40.3335 0.0532404V0.0136719H0.0131895Z" fill="white"/>
</mask>
<g mask="url(#mask0_404_274)">
<path d="M-35.3018 20.391L59.7023 -34.4641L114.907 61.1466L19.8963 115.995L-35.3018 20.391Z" fill="url(#paint0_linear_404_274)"/>
</g>
<mask id="mask1_404_274" style="mask-type:luminance" maskUnits="userSpaceOnUse" x="82" y="0" width="81" height="82">
<path d="M121.923 0.00659459V0.0461631C100.207 0.323143 82.6516 18.4191 82.6516 40.7292C82.711 63.2767 100.497 81.5177 122.491 81.4848C144.293 81.4782 161.914 63.5207 162.263 41.3095L162.25 0H121.923V0.00659459Z" fill="white"/>
</mask>
<g mask="url(#mask1_404_274)">
<path d="M85.0518 95.1293L176.198 79.0579L159.856 -13.6116L68.71 2.45984L85.0518 95.1293Z" fill="url(#paint1_linear_404_274)"/>
</g>
<mask id="mask2_404_274" style="mask-type:luminance" maskUnits="userSpaceOnUse" x="82" y="84" width="81" height="83">
<path d="M122.444 84.5379C100.668 84.551 83.0143 102.476 82.6714 124.726L82.6516 124.7L82.6582 166.062L122.939 166.042V165.976C144.695 165.739 162.244 147.597 162.224 125.326C162.204 102.772 144.491 84.5312 122.464 84.5312C122.458 84.5378 122.451 84.5379 122.444 84.5379Z" fill="white"/>
</mask>
<g mask="url(#mask2_404_274)">
<path d="M47.3494 104.922L142.34 50.0739L197.545 145.685L102.547 200.527L47.3494 104.922Z" fill="url(#paint2_linear_404_274)"/>
</g>
<mask id="mask3_404_274" style="mask-type:luminance" maskUnits="userSpaceOnUse" x="0" y="84" width="80" height="83">
<path d="M39.8062 84.5379C18.0303 84.551 0.376139 102.476 0.033212 124.726L0.0134277 124.7L0.0200225 166.062L40.3008 166.042V165.976C62.0569 165.739 79.6055 147.597 79.5857 125.326C79.5659 102.772 61.8524 84.5312 39.8259 84.5312C39.8259 84.5378 39.8194 84.5379 39.8062 84.5379Z" fill="white"/>
</mask>
<g mask="url(#mask3_404_274)">
<path d="M-26.1873 94.074L70.294 58.9569L105.807 156.526L9.32549 191.643L-26.1873 94.074Z" fill="url(#paint3_linear_404_274)"/>
</g>
<path d="M275.997 181.184C275.911 185.418 278.958 186.711 282.703 186.711C284.86 186.711 288.144 185.53 288.144 182.536C288.144 180.202 285.816 179.278 283.917 178.823L279.34 177.702C276.92 177.096 274.704 175.942 274.711 172.75C274.711 170.732 276.01 166.966 281.793 166.966C285.856 166.966 289.423 169.156 289.391 173.356H287.432C287.32 170.217 284.728 168.635 281.82 168.635C279.142 168.635 276.669 169.67 276.663 172.717C276.663 174.649 278.1 175.453 279.769 175.856L284.774 177.096C287.682 177.874 290.103 179.14 290.096 182.51C290.096 183.921 289.516 188.379 282.235 188.379C277.368 188.379 273.801 186.19 274.031 181.178L275.997 181.184Z" fill="white"/>
<path d="M301.512 166.959H303.549V176.264H316.271V166.966H318.315L318.309 188.392H316.264L316.271 178.012L303.549 178.005L303.543 188.385H301.505L301.512 166.959Z" fill="white"/>
<path d="M338.64 166.973C345.09 166.973 348.308 172.07 348.308 177.689C348.308 183.301 345.077 188.392 338.634 188.392C332.158 188.392 328.933 183.295 328.939 177.683C328.933 172.064 332.164 166.966 338.64 166.973ZM338.627 186.717C344.041 186.717 346.343 182.174 346.343 177.683C346.343 173.192 344.041 168.641 338.634 168.641C333.193 168.641 330.885 173.185 330.885 177.676C330.885 182.167 333.186 186.717 338.627 186.717Z" fill="white"/>
<path d="M358.933 166.966L368.442 166.973C372.28 166.973 374.806 169.228 374.8 173.099C374.8 176.97 372.274 179.219 368.436 179.219L360.964 179.213L360.957 188.392H358.913L358.933 166.966ZM360.97 177.465H367.994C370.816 177.465 372.762 176.027 372.768 173.086C372.768 170.145 370.823 168.7 368 168.7H360.977L360.97 177.465Z" fill="white"/>
<path d="M386.842 166.966L396.352 166.973C400.19 166.973 402.709 169.228 402.709 173.099C402.709 176.97 400.183 179.219 396.345 179.219L388.873 179.213L388.867 188.392H386.822L386.842 166.966ZM388.88 177.465H395.903C398.726 177.465 400.671 176.027 400.678 173.086C400.678 170.145 398.732 168.7 395.91 168.7H388.886L388.88 177.465Z" fill="white"/>
<path d="M416.934 166.966H414.896V188.392H416.934V166.966Z" fill="white"/>
<path d="M430.386 166.959H432.668L445.146 185.088H445.205L445.211 166.966H447.249L447.243 188.392H444.961L432.484 170.263H432.424L432.418 188.385H430.38L430.386 166.959Z" fill="white"/>
<path d="M475.758 187.957H474.347L474.09 184.218H474.03C472.646 187.153 469.882 188.392 466.921 188.386C460.445 188.386 457.22 183.288 457.227 177.676C457.227 172.064 460.458 166.966 466.935 166.973C471.254 166.973 474.762 169.307 475.508 173.798H473.549C473.292 171.437 470.845 168.641 466.928 168.641C461.487 168.641 459.186 173.185 459.179 177.676C459.179 182.167 461.481 186.717 466.915 186.717C471.465 186.717 474.11 183.525 474.03 179.18H467.04V177.511L475.765 177.518L475.758 187.957Z" fill="white"/>
<path d="M279.558 96.7782C275.311 90.8495 269.238 87.0575 260.44 84.8482C260.13 84.7691 259.814 84.69 259.504 84.6174C259.985 84.3141 260.473 84.0239 260.961 83.7337C262.307 82.9292 263.705 82.1048 264.918 81.0563C273.056 74.0724 273.887 61.0082 269.996 52.4218C265.696 42.9452 257.651 37.7551 246.723 37.4188C236.073 37.0824 225.244 37.1286 214.772 37.1748C210.927 37.1946 207.076 37.2078 203.231 37.2078C202.439 37.2078 201.635 37.1616 200.863 37.3067L199.834 37.4649L199.788 142.328L215.339 142.341C219.553 142.348 223.82 142.354 228.113 142.354C235.387 142.361 242.733 142.348 249.994 142.308C253.727 142.289 257.169 141.952 260.209 141.319C268.71 139.539 275.318 135.061 279.855 128.017C283.087 122.999 284.551 117.215 284.221 110.818C283.937 105.345 282.414 100.755 279.558 96.7782ZM206.132 43.5057H219.342C227.618 43.5123 235.888 43.5123 244.164 43.5255C249.763 43.5387 254.254 44.7587 257.901 47.2516C263.823 51.3007 266.389 57.1437 265.756 65.1101C264.753 77.5544 255.343 82.2697 246.868 82.5335C237.247 82.8302 227.44 82.8171 217.963 82.7973C215.945 82.7907 213.921 82.7907 211.903 82.7907C209.977 82.7907 208.052 82.7907 206.119 82.7973L206.132 43.5057ZM277.837 115.639C276.723 123.784 271.48 130.523 263.823 133.676C260.031 135.239 255.85 136.004 251.049 136.024C239.667 136.056 228.291 136.043 216.908 136.03L206.238 136.017C206.192 136.017 206.152 136.017 206.113 136.017L206.132 89.1216H220.173C230.658 89.1151 241.144 89.1216 251.63 89.1546C258.798 89.181 264.569 90.9748 269.271 94.6414C275.74 99.693 278.945 107.547 277.837 115.639Z" fill="white"/>
<path d="M363.159 117.974C362.599 117.993 362.111 118.006 361.662 117.941C359.479 117.631 358.589 118.877 357.956 120.282C357.02 122.385 355.938 124.245 354.738 125.801C350.286 131.605 344.232 135.001 336.741 135.885C328.141 136.894 320.617 134.553 314.385 128.927C308.317 123.454 305.02 116.424 304.334 107.468L315.948 107.475C330.482 107.481 345.024 107.488 359.565 107.521C360.838 107.6 361.834 107.132 362.935 106.149C364.129 105.074 365.435 103.524 364.933 101.065C364.828 100.557 364.795 100.036 364.755 99.5148C364.722 99.1125 364.696 98.7037 364.637 98.3014C363.014 86.7012 357.33 77.5873 347.734 71.2233C341.463 67.0488 334.683 65.4661 327.567 66.5344C318.73 67.8534 311.529 72.2851 306.154 79.7108C296.387 93.2036 295.062 108.042 302.323 122.636C308.772 135.568 319.397 142.348 333.147 142.348C333.912 142.348 334.69 142.328 335.475 142.288C346.442 141.708 355.147 136.623 361.352 127.193C363.146 124.463 364.28 121.871 364.927 119.048L365.177 117.954H364.056C363.74 117.954 363.443 117.96 363.159 117.974ZM316.323 77.9038C321.718 73.7029 328.319 71.9026 334.888 72.839C341.786 73.8216 347.985 77.6664 352.324 83.6676C356.044 88.8181 358.114 94.5424 358.635 101.131L304.321 101.104C305.191 91.1065 309.122 83.5159 316.323 77.9038Z" fill="white"/>
<path d="M468.867 80.1857C468.524 79.7768 468.181 79.3679 467.838 78.9524C466.888 77.7984 465.899 76.6113 464.818 75.5232C458.566 69.2318 451.358 66.0465 443.398 66.0399C435.359 66.0333 428.091 69.1131 421.793 75.1803C414.77 81.9267 410.807 90.2295 410.015 99.8578C408.663 116.147 414.447 128.743 427.221 137.309C432.233 140.673 437.469 142.354 442.87 142.361C446.385 142.361 449.966 141.649 453.607 140.231C459.403 137.969 464.369 134.038 468.794 128.228C468.84 128.169 468.887 128.11 468.926 128.057L468.92 139.149H475.264L475.29 69.179H468.854L468.867 80.1857ZM468.972 100.788L468.966 104.23L468.972 107.712C468.979 110.924 468.986 114.142 468.933 117.354C468.92 118.073 468.709 118.864 468.385 119.411C464.013 126.606 458.889 131.361 452.723 133.939C443.952 137.613 435.642 136.373 428.019 130.266C420.56 124.291 416.57 115.989 416.175 105.602C415.779 95.3536 419.07 86.6683 425.948 79.79C430.861 74.8835 437.1 72.4039 443.391 72.4105C449.043 72.4105 454.734 74.4153 459.522 78.4578C463.077 81.4585 466.031 84.9273 468.306 88.7654C468.689 89.4117 468.92 90.2888 468.939 91.1198C468.992 94.3446 468.986 97.5628 468.972 100.788Z" fill="white"/>
<path d="M548.354 114.155C547.49 112.289 546 110.409 544.146 108.866C539.576 105.067 533.958 103.636 528.517 102.251L527.772 102.06C526.202 101.658 524.626 101.289 523.043 100.926C518.394 99.8443 513.593 98.7298 509.214 96.659C504.281 94.3311 501.808 91.1854 501.445 86.7669C501.017 81.5834 504.11 76.9275 509.511 74.6128C514.648 72.4167 520.273 71.8232 526.71 72.7992C533.047 73.762 537.677 76.6307 540.467 81.346C542.267 84.3796 544.483 84.7885 547.259 84.4521L548.69 84.0762L548.308 83.1398C545.024 75.0216 539.108 69.6799 530.726 67.2794C525.332 65.7296 519.502 65.5977 513.402 66.8903C506.721 68.295 501.782 71.2428 498.287 75.8987C493.934 81.6889 494.013 90.638 498.458 96.2765C500.977 99.4684 504.321 101.744 508.409 103.049C513.019 104.52 517.774 105.773 522.371 106.986L527.106 108.239C531.273 109.334 535.204 110.369 538.759 112.605C542.386 114.887 543.942 118.066 543.527 122.319C543.151 126.019 541.166 129.151 537.618 131.644C534.248 134.005 530.245 135.317 525.022 135.772C517.807 136.406 511.819 135.199 506.721 132.079C502.428 129.448 499.111 125.847 496.585 121.066C496.137 120.202 495.602 119.391 494.791 119.279C493.809 119.141 492.839 119.16 491.89 119.193C491.533 119.2 491.184 119.213 490.834 119.213H490.017L489.905 120.295C489.878 120.459 489.852 120.657 489.951 120.987C494.026 130.932 500.971 137.566 510.606 140.692C514.074 141.82 517.662 142.38 521.362 142.387C525.358 142.387 529.48 141.734 533.687 140.422C539.299 138.674 543.612 135.667 546.514 131.486C550.431 125.808 551.051 119.985 548.354 114.155Z" fill="white"/>
<path d="M371.786 43.4396L385.397 43.4462L385.358 142.354H391.544L391.59 37.2141L371.786 37.2075V43.4396Z" fill="white"/>
<defs>
<linearGradient id="paint0_linear_404_274" x1="5.37056" y1="60.7347" x2="86.1397" y2="14.1026" gradientUnits="userSpaceOnUse">
<stop stop-color="#EF790D"/>
<stop offset="0.0165" stop-color="#EE780D"/>
<stop offset="0.3997" stop-color="#DE5E16"/>
<stop offset="0.7399" stop-color="#D54E19"/>
<stop offset="1" stop-color="#D2481A"/>
</linearGradient>
<linearGradient id="paint1_linear_404_274" x1="83.5487" y1="47.5326" x2="182.292" y2="30.1214" gradientUnits="userSpaceOnUse">
<stop stop-color="#EF790D"/>
<stop offset="0.0165" stop-color="#EE780D"/>
<stop offset="0.3997" stop-color="#DE5E16"/>
<stop offset="0.7399" stop-color="#D54E19"/>
<stop offset="1" stop-color="#D2481A"/>
</linearGradient>
<linearGradient id="paint2_linear_404_274" x1="75.4308" y1="152.556" x2="157.474" y2="105.189" gradientUnits="userSpaceOnUse">
<stop stop-color="#EF790D"/>
<stop offset="0.5803" stop-color="#DC5A17"/>
<stop offset="1" stop-color="#D2481A"/>
</linearGradient>
<linearGradient id="paint3_linear_404_274" x1="-8.05839" y1="142.615" x2="77.5504" y2="111.456" gradientUnits="userSpaceOnUse">
<stop stop-color="#EF790D"/>
<stop offset="1" stop-color="#D2481A"/>
</linearGradient>
</defs>
</svg>
